PathFileType	4	(X/Y/Z)	TVC_39_BWA_04_walk_RCNL2025.trc
DataRate	CameraRate	NumFrames	NumMarkers	Units	OrigDataRate	OrigDataStartFrame	OrigNumFrames
100	100	9	27	mm	100	952	1269
Frame#	Time	R_Shoulder			L_Shoulder			C7			J_Notch			R_Elbow			L_Elbow			R_Wrist			L_Wrist			R_Asis			L_Asis			R_Psis			L_Psis			Sacral			Thoracic			Sternum			R_Thigh_Lateral			R_Knee_Lateral			R_Shank_Lateral			R_Ankle_Lateral			R_Heel			R_Toe			L_Thigh_Lateral			L_Knee_Lateral			L_Shank_Lateral			L_Ankle_Lateral			L_Heel			L_Toe		
		X1	Y1	Z1	X2	Y2	Z2	X3	Y3	Z3	X4	Y4	Z4	X5	Y5	Z5	X6	Y6	Z6	X7	Y7	Z7	X8	Y8	Z8	X9	Y9	Z9	X10	Y10	Z10	X11	Y11	Z11	X12	Y12	Z12	X13	Y13	Z13	X14	Y14	Z14	X15	Y15	Z15	X16	Y16	Z16	X17	Y17	Z17	X18	Y18	Z18	X19	Y19	Z19	X20	Y20	Z20	X21	Y21	Z21	X22	Y22	Z22	X23	Y23	Z23	X24	Y24	Z24	X25	Y25	Z25	X26	Y26	Z26	X27	Y27	Z27
952	9.51000000	419.893707	1483.068726	371.548431	511.916321	1494.478394	20.518755	428.819824	1547.593628	185.356247	578.508118	1424.695068	216.621445	426.681427	1165.204712	494.840088	476.588806	1192.232788	-121.272583	557.797211	946.208984	474.502518	553.497894	941.881531	-96.125500	488.833344	944.492126	351.941803	567.119385	938.675232	67.199677	320.775055	971.999146	212.202209	348.800934	964.785767	108.845856	334.787994	968.392456	160.524033	343.764954	1220.201172	154.656937	620.245300	1264.358276	237.495987	419.963501	745.978760	419.188263	404.634064	480.522583	362.489960	284.844391	322.604187	399.021179	250.100769	99.254135	304.851959	224.652740	88.012505	240.627899	374.548065	47.923393	360.094330	539.373596	686.093811	-14.555924	580.089233	473.139893	81.518341	545.911438	332.991699	20.418297	500.449493	75.169083	110.669449	447.612457	58.763851	163.336685	639.796021	44.876270	123.188461
953	9.52000000	421.570221	1483.654907	369.885834	513.611694	1494.551147	18.852814	430.465607	1547.909912	183.566742	580.204346	1425.077515	215.037033	428.175323	1165.968384	493.482544	478.573730	1192.335327	-122.857834	559.237000	946.869080	472.959717	555.702576	942.014984	-98.230328	490.673553	944.941711	350.920776	569.136780	939.075684	66.143539	322.696472	972.232910	211.095367	350.714661	965.072571	107.743568	336.705566	968.652740	159.419468	345.588135	1220.466675	153.294724	621.968018	1264.769409	236.176514	422.869598	746.545227	418.541351	409.042389	480.772980	363.016663	287.801331	323.722412	398.735565	251.379120	100.973503	304.219635	226.135284	90.178192	239.819458	374.946625	48.007057	359.972076	540.763855	686.313904	-15.401565	579.975891	473.079285	80.801048	545.729309	332.759583	19.805330	500.418915	75.108093	110.525223	447.574982	58.775562	163.239899	639.767883	44.854942	123.172531
954	9.53000000	423.211884	1484.244141	368.245392	515.244324	1494.603149	17.202932	432.074097	1548.218628	181.797119	581.869263	1425.462158	213.471695	429.565491	1166.750122	492.197479	480.457275	1192.407959	-124.403351	560.605988	947.574463	471.422058	557.804077	942.118622	-100.298557	492.535583	945.390015	349.900482	571.142395	939.472778	65.084923	324.617371	972.454468	210.012329	352.616852	965.347473	106.657990	338.617111	968.900970	158.335159	347.390228	1220.720825	151.968353	623.670593	1265.184326	234.874741	425.892731	747.122070	417.946838	413.585876	481.028076	363.647797	290.953217	324.868713	398.677185	252.674637	102.780663	303.801819	227.543259	92.459183	239.269226	375.386536	48.103485	359.859619	542.101868	686.503418	-16.268379	579.864502	473.011139	80.056587	545.550354	332.520630	19.178137	500.400024	75.047806	110.364159	447.550720	58.795113	163.148972	639.735474	44.824547	123.148087
955	9.54000000	424.819458	1484.829590	366.629364	516.813904	1494.633667	15.571458	433.646057	1548.517334	180.051941	583.503723	1425.846069	211.926651	430.859619	1167.539062	490.979309	482.238068	1192.449097	-125.907555	561.909760	948.313477	469.898315	559.797211	942.190643	-102.323780	494.420929	945.836365	348.881500	573.135071	939.859802	64.023178	326.538910	972.660645	208.954483	354.507538	965.605347	105.591354	340.523224	969.132996	157.272919	349.172699	1220.961304	150.676651	625.354675	1265.600098	233.589142	429.037872	747.708374	417.404297	418.255157	481.290985	364.376068	294.292999	326.040924	398.841858	253.991943	104.674477	303.594421	228.885513	94.853333	238.971466	375.866699	48.209522	359.757080	543.389832	686.657166	-17.149742	579.767517	472.933807	79.290871	545.386597	332.275238	18.544521	500.392456	74.986778	110.190140	447.542969	58.821487	163.069611	639.699646	44.785614	123.115593
956	9.55000000	426.394104	1485.404419	365.040100	518.320129	1494.642700	13.960719	435.182587	1548.803345	178.335663	585.108948	1426.226196	210.402954	432.066833	1168.324463	489.821320	483.915039	1192.457764	-127.368828	563.153778	949.073547	468.397446	561.677094	942.229523	-104.299862	496.330505	946.280823	347.864655	575.113281	940.230530	62.957928	328.461884	972.848633	207.923401	356.386505	965.841248	104.546059	342.424194	969.344940	156.234730	350.936798	1221.186401	149.418350	627.021606	1266.013306	232.318115	432.307953	748.303833	416.912231	423.039276	481.565399	365.192719	297.811157	327.236908	399.221252	255.336258	106.653114	303.589752	230.173462	97.357338	238.915970	376.384216	48.321072	359.664429	544.634033	686.772827	-18.037935	579.696106	472.845917	78.510910	545.248901	332.024170	17.912836	500.394287	74.923080	110.008255	447.554474	58.853462	163.007126	639.662231	44.739674	123.075645
957	9.56000000	427.937225	1485.962646	363.479797	519.762695	1494.630615	12.373015	436.684875	1549.074707	176.652512	586.686096	1426.600098	208.901413	433.197418	1169.096069	488.715912	485.487091	1192.433838	-128.785568	564.343536	949.841675	466.928238	563.438965	942.234131	-106.221043	498.264587	946.723877	346.851135	577.075562	940.579590	61.889164	330.386719	973.016052	206.920532	358.253448	966.050842	103.524506	344.320084	969.533447	155.222519	352.683777	1221.394775	148.192123	628.672791	1266.421387	231.060120	435.703522	748.908813	416.468231	427.925507	481.855591	366.087524	301.495972	328.454376	399.803101	256.713135	108.713844	303.776733	231.420761	99.966721	239.088333	376.934937	48.433727	359.581451	545.844299	686.851379	-18.925032	579.660339	472.746338	77.724442	545.146179	331.768433	17.291599	500.402344	74.854462	109.824684	447.586792	58.889954	162.965576	639.625366	44.689362	123.028900
958	9.57000000	429.450562	1486.498657	361.950592	521.141174	1494.597900	10.810592	438.154419	1549.329834	175.006561	588.236389	1426.965454	207.422668	434.262421	1169.844727	487.655273	486.953278	1192.376953	-130.156189	565.484467	950.604797	465.499161	565.078461	942.203766	-108.081955	500.222900	947.166748	345.842316	579.020569	940.902588	60.817268	332.313538	973.161316	205.947098	360.108154	966.230286	102.528877	346.210846	969.695801	154.237988	354.414673	1221.585449	146.996643	630.309509	1266.821899	229.813660	439.222260	749.524170	416.068878	432.899384	482.166046	367.049133	305.333801	329.690948	400.571564	258.128265	110.852760	304.141449	232.642899	102.675827	239.470444	377.513885	48.543488	359.507874	547.033020	686.896362	-19.803398	579.669189	472.634308	76.939453	545.085815	331.509308	16.689011	500.412445	74.778610	109.646278	447.639923	58.930202	162.947296	639.591919	44.638283	122.976044
959	9.58000000	430.936066	1487.007446	360.454468	522.454956	1494.546021	9.275606	439.592743	1549.567383	173.401520	589.761047	1427.320435	205.967178	435.273682	1170.562012	486.631500	488.312347	1192.287964	-131.479141	566.581879	951.350189	464.118118	566.591278	942.138336	-109.877655	502.204681	947.611145	344.839661	580.947205	941.195984	59.743107	334.242188	973.283142	205.003891	361.950500	966.376465	101.561043	348.096344	969.829803	153.282467	356.130402	1221.757935	145.830658	631.932922	1267.212646	228.577408	442.858521	750.151550	415.710083	437.944580	482.501312	368.065399	309.308868	330.944397	401.507416	259.587128	113.064568	304.667389	233.856888	105.477783	240.040924	378.116058	48.647366	359.443420	548.214600	686.913147	-20.666159	579.730835	472.509216	76.163841	545.073547	331.248169	16.112505	500.420135	74.693596	109.479889	447.711975	58.973774	162.952515	639.564697	44.590717	122.917793
960	9.59000000	432.395813	1487.485229	358.993317	523.703247	1494.476685	7.770109	441.001465	1549.786743	171.840805	591.261414	1427.663574	204.535217	436.243164	1171.240723	485.637085	489.562958	1192.167847	-132.753006	567.640900	952.065918	462.792313	567.973511	942.038025	-111.603653	504.208496	948.059204	343.844788	582.854919	941.457031	58.667980	336.172363	973.381042	204.091171	363.780670	966.487000	100.622375	349.976517	969.934021	152.356773	357.831757	1221.911987	144.692993	633.544250	1267.592285	227.350189	446.603241	750.792969	415.386993	443.043121	482.865845	369.123779	313.403229	332.212585	402.588867	261.094971	115.342361	305.336060	235.080856	108.364365	240.775742	378.736877	48.743763	359.388000	549.404602	686.908447	-21.507809	579.852539	472.370667	75.405106	545.114197	330.986267	15.568477	500.421600	74.598366	109.331474	447.799103	59.020470	162.979233	639.546631	44.551052	122.854927
